<?xml version="1.0" standalone="no"?>
<!DOCTYPE svg PUBLIC "-//W3C//DTD SVG 20010904//EN"
 "http://www.w3.org/TR/2001/REC-SVG-20010904/DTD/svg10.dtd">
<svg version="1.0" xmlns="http://www.w3.org/2000/svg"
 width="3070.000000pt" height="1980.000000pt" viewBox="0 0 3070.000000 1980.000000"
 preserveAspectRatio="xMidYMid meet">

<g transform="translate(0.000000,1980.000000) scale(0.100000,-0.100000)"
fill="#000000" stroke="none">
<path d="M6220 7438 c-25 -10 -72 -24 -118 -34 -13 -2 -36 -12 -50 -22 -14 -9
-27 -16 -29 -14 -5 4 -57 -10 -86 -25 -16 -8 -39 -16 -50 -19 -12 -2 -38 -10
-57 -18 -19 -9 -80 -31 -135 -51 -55 -20 -108 -40 -118 -46 -9 -5 -39 -16 -65
-25 -39 -13 -113 -43 -237 -94 -11 -5 -38 -15 -60 -22 -22 -7 -42 -16 -45 -19
-5 -5 -32 -16 -155 -59 -27 -10 -70 -27 -95 -38 -25 -11 -133 -55 -240 -97
-107 -42 -208 -83 -225 -90 -16 -7 -64 -26 -105 -41 -41 -15 -85 -34 -97 -42
-13 -8 -23 -11 -23 -8 0 3 -22 -5 -50 -19 -27 -14 -55 -25 -62 -25 -7 0 -35
-12 -63 -25 -27 -14 -56 -25 -63 -25 -7 0 -27 -7 -45 -17 -46 -24 -236 -103
-276 -115 -18 -5 -48 -18 -67 -29 -19 -10 -36 -19 -39 -19 -3 0 -22 -7 -43
-16 -20 -9 -71 -28 -112 -44 -41 -16 -88 -35 -105 -43 -29 -14 -300 -131 -340
-147 -11 -4 -56 -23 -100 -43 -44 -19 -114 -50 -155 -67 -41 -18 -111 -50
-155 -73 -44 -22 -81 -39 -83 -38 -5 3 -177 -84 -180 -91 -2 -5 -10 -8 -18 -8
-17 0 -114 -51 -114 -60 0 -3 -9 -6 -21 -7 -11 -1 -27 -7 -34 -13 -8 -7 -29
-20 -47 -29 -18 -10 -55 -30 -83 -46 -27 -15 -62 -34 -77 -42 -16 -8 -28 -18
-28 -22 0 -4 -16 -13 -36 -20 -25 -9 -34 -17 -30 -28 4 -11 2 -13 -9 -10 -8 4
-17 2 -20 -4 -4 -5 -10 -7 -15 -4 -8 5 -24 -12 -58 -61 -7 -11 -10 -13 -7 -6
4 7 0 12 -9 12 -9 0 -16 -4 -16 -10 0 -5 -18 -21 -40 -35 -22 -14 -40 -30 -40
-36 0 -5 5 -7 10 -4 6 3 10 1 10 -5 0 -6 5 -8 12 -4 7 4 8 3 4 -5 -6 -9 -14
-8 -32 3 -21 15 -23 15 -17 -1 4 -10 3 -14 -5 -9 -18 11 -85 -60 -77 -83 7
-22 -7 -34 -45 -39 -43 -6 -65 -34 -34 -46 8 -3 12 -2 9 4 -8 12 5 13 25 0 11
-7 8 -11 -15 -21 -40 -17 -48 -17 -64 -5 -12 10 -12 8 0 -11 9 -15 20 -21 31
-17 19 6 22 -1 19 -54 -1 -26 5 -40 24 -57 26 -21 26 -22 6 -28 -12 -3 -19 0
-18 7 1 6 -6 10 -17 8 -13 -3 -17 1 -13 12 3 8 2 18 -3 21 -5 3 -9 -10 -8 -29
1 -24 5 -33 15 -29 9 4 11 0 7 -12 -4 -10 -14 -15 -25 -12 -14 4 -19 0 -19
-16 0 -18 2 -20 11 -7 9 12 10 11 6 -7 -3 -12 1 -27 9 -34 8 -6 12 -15 9 -19
-5 -9 12 -24 38 -33 11 -4 17 -1 17 9 0 11 -6 13 -20 9 -17 -5 -20 -2 -20 25
0 24 -4 31 -15 26 -12 -4 -13 -2 -2 16 6 12 17 27 22 33 14 16 72 35 80 27 4
-4 6 -2 5 3 -5 24 1 56 10 50 5 -3 6 -13 3 -22 -5 -11 -3 -14 6 -8 10 6 11 3
1 -15 -7 -12 -17 -19 -26 -16 -8 3 -14 1 -14 -4 0 -5 -7 -7 -15 -4 -8 4 -15 1
-15 -5 0 -13 50 -11 69 3 11 8 13 8 8 -1 -4 -6 0 -19 9 -27 8 -9 10 -16 4 -16
-6 0 -13 6 -16 14 -3 8 -12 12 -20 9 -13 -5 -12 -8 2 -24 9 -11 13 -19 8 -19
-5 -1 2 -7 15 -14 20 -11 21 -14 7 -19 -10 -4 -14 -12 -10 -18 4 -8 3 -9 -4
-5 -7 4 -12 2 -12 -5 0 -7 -8 -9 -21 -6 -12 3 -22 0 -26 -9 -3 -8 -17 -21 -32
-29 -25 -14 -25 -14 -3 -16 31 -2 71 -1 75 1 1 1 12 3 24 6 18 3 23 -1 23 -17
0 -11 4 -18 9 -15 5 3 8 -7 8 -22 l0 -27 -15 33 c-9 17 -20 32 -25 32 -5 0 -4
-7 3 -15 7 -8 9 -15 6 -15 -4 0 0 -10 8 -21 8 -12 12 -29 8 -38 -5 -14 -4 -14
11 -2 22 18 33 8 13 -12 -16 -15 -12 -50 8 -77 9 -13 9 -13 -6 -2 -12 9 -18
10 -23 2 -4 -6 1 -17 11 -25 26 -18 48 -1 33 26 -7 13 -6 19 1 19 6 0 8 5 5
10 -4 6 -11 8 -16 5 -5 -3 -6 1 -2 10 5 13 7 14 14 3 7 -10 9 -8 10 7 0 18 2
17 12 -4 9 -19 9 -25 -1 -29 -19 -6 -14 -34 5 -30 10 2 17 10 16 16 -4 18 23
14 38 -5 12 -16 12 -17 -2 -5 -14 10 -19 8 -34 -15 -11 -16 -20 -23 -23 -15
-2 7 -8 10 -13 6 -5 -3 -6 -11 -2 -17 11 -18 12 -37 3 -37 -5 0 -11 6 -14 13
-3 6 -3 1 0 -13 9 -34 13 -37 25 -20 9 12 10 12 5 -3 -3 -10 -6 -23 -6 -28 0
-5 -7 -9 -16 -9 -8 0 -13 4 -10 8 2 4 1 14 -3 21 -5 7 -8 1 -9 -18 -1 -28 1
-29 24 -20 32 12 44 12 44 -1 0 -5 -10 -10 -22 -10 -17 0 -19 -3 -10 -9 8 -4
13 -19 12 -32 -4 -42 0 -60 10 -54 5 3 7 12 3 20 -7 20 21 19 38 -1 12 -14 14
-14 20 3 3 10 6 -7 5 -38 -2 -60 -17 -89 -47 -89 -10 0 -21 -4 -24 -10 -4 -6
4 -9 17 -7 14 1 22 -3 21 -10 -2 -7 4 -10 13 -6 13 5 13 7 2 14 -7 5 -8 9 -3
9 6 0 21 -13 35 -30 31 -38 43 -38 38 -1 -3 20 0 27 8 24 7 -2 14 3 17 11 4
13 5 12 3 -1 -1 -10 5 -24 14 -31 8 -8 9 -11 2 -7 -6 3 -16 4 -21 1 -13 -8 10
-66 26 -66 7 0 12 -6 10 -12 -1 -7 5 -14 13 -14 42 -4 45 -5 25 -13 -11 -5
-25 -4 -32 1 -7 5 -14 5 -17 -1 -4 -5 -2 -13 4 -16 8 -5 7 -11 -1 -21 -8 -9
-8 -14 -1 -14 6 0 15 6 19 14 9 14 61 27 68 16 2 -4 -2 -7 -10 -8 -8 -1 -22
-3 -30 -4 -20 -2 -19 -28 1 -28 11 0 15 -6 11 -19 -3 -15 -1 -18 11 -14 10 4
13 2 8 -5 -4 -7 -2 -20 4 -29 9 -16 10 -15 5 5 -8 27 6 29 25 2 19 -26 34 -26
27 0 -3 14 -1 18 6 13 7 -4 20 -6 30 -5 9 2 17 -2 17 -8 0 -6 -5 -8 -12 -4 -6
4 -8 3 -4 -4 3 -6 -2 -15 -11 -21 -10 -6 -13 -11 -6 -11 6 0 22 12 34 27 20
26 21 26 16 6 -6 -25 -6 -25 41 -29 17 -1 32 2 32 7 0 6 9 5 21 -2 17 -9 20
-8 14 2 -6 9 -3 11 9 6 10 -4 19 -1 22 8 7 17 25 10 20 -8 -1 -7 -1 -9 1 -4 3
4 8 5 13 2 5 -3 16 2 24 11 15 14 16 14 16 -5 0 -11 -5 -23 -10 -26 -6 -4 -7
-11 -3 -18 4 -6 12 3 19 24 7 18 13 26 13 17 1 -10 7 -17 14 -15 6 1 11 -4 9
-11 -1 -8 2 -11 7 -7 6 3 8 12 4 20 -4 11 -1 13 11 9 9 -3 13 -10 10 -15 -3
-5 7 -8 23 -7 37 3 54 -8 47 -30 -4 -10 -2 -13 3 -7 4 6 23 15 41 22 27 10 32
9 32 -5 0 -18 13 -8 16 13 1 8 -2 15 -7 15 -5 0 -9 5 -9 10 0 6 16 10 35 10
19 0 35 -5 35 -11 0 -5 -4 -8 -9 -5 -4 3 -13 -6 -20 -20 l-12 -26 30 28 c16
15 28 31 26 34 -3 4 7 5 22 2 22 -4 25 -2 19 13 -6 18 -6 18 12 2 15 -13 21
-14 32 -4 11 9 11 7 0 -7 -14 -18 -13 -19 19 -13 20 4 39 3 47 -4 8 -6 14 -8
15 -3 0 5 5 0 10 -11 9 -19 9 -18 5 3 -3 15 2 26 15 32 12 7 16 16 12 28 -4 9
7 2 22 -15 29 -32 60 -48 35 -18 -11 13 -10 14 4 9 19 -7 21 7 4 25 -7 8 -1 6
14 -4 15 -9 33 -13 39 -9 8 4 9 3 5 -4 -4 -7 -1 -12 8 -12 9 0 16 -4 16 -10 0
-5 7 -7 15 -4 8 4 12 10 9 15 -3 5 0 9 5 9 6 0 10 3 10 8 -4 22 3 32 21 32 15
0 20 -7 20 -25 l0 -26 22 21 c12 11 27 20 32 20 6 0 3 5 -6 11 -10 5 -18 18
-18 27 0 10 3 13 8 7 11 -15 42 -18 57 -5 15 12 35 6 35 -11 0 -5 -7 -9 -15
-9 -13 0 -13 -3 -3 -20 16 -25 28 -26 26 -2 -3 37 3 48 28 50 14 1 23 -2 19
-8 -3 -6 -14 -10 -23 -10 -15 0 -15 -2 -2 -10 19 -12 43 17 36 43 -2 11 0 14
7 10 17 -10 58 -10 64 1 3 5 1 6 -5 2 -7 -4 -12 -2 -12 3 0 6 7 11 16 11 12 0
15 -7 12 -23 -3 -16 0 -24 10 -24 23 0 51 32 41 48 -6 10 -11 6 -19 -15 -14
-38 -20 -30 -11 14 5 27 12 36 30 38 20 3 23 0 18 -17 -4 -17 -2 -18 13 -8 14
8 16 16 10 28 -5 9 -7 19 -4 22 9 9 32 -16 27 -29 -2 -5 6 -19 18 -30 l21 -19
-7 33 c-4 20 -3 32 4 32 6 0 11 8 11 17 0 15 2 14 15 -3 12 -17 12 -20 -2 -31
-9 -7 -12 -13 -6 -13 7 0 15 5 18 11 4 6 13 8 21 5 11 -4 12 -1 5 13 -10 19
-6 31 12 31 5 0 6 -7 3 -16 -5 -12 -2 -15 10 -10 8 3 17 6 19 6 2 0 -2 12 -10
27 -9 17 -11 31 -5 38 6 7 7 15 3 19 -4 4 0 4 10 0 9 -3 17 -14 17 -23 0 -13
-2 -13 -9 -2 -5 8 -11 9 -15 3 -7 -12 12 -27 35 -27 9 0 27 -9 40 -20 18 -15
21 -16 10 -2 -12 15 -11 20 5 32 10 8 23 15 28 15 6 0 2 6 -7 13 -14 10 -14
15 -2 30 8 12 15 14 20 8 3 -6 1 -11 -6 -11 -8 0 -8 -4 1 -15 10 -12 16 -13
27 -4 11 10 11 15 -4 33 -10 12 -11 15 -3 9 17 -16 34 -17 25 -3 -4 6 -3 9 2
8 4 -1 18 3 31 10 12 7 27 10 32 7 6 -3 10 1 10 10 0 9 6 15 13 12 6 -2 11
-11 9 -21 -2 -9 3 -16 11 -16 8 0 12 10 11 30 -1 20 3 30 12 30 8 0 14 7 14
16 0 12 6 15 23 10 16 -4 26 1 35 14 10 16 10 20 -2 20 -8 0 -16 -8 -18 -17
-3 -14 -5 -13 -10 5 -4 13 -4 21 -1 18 3 -3 14 -1 24 4 13 8 20 6 27 -6 6 -11
11 -13 16 -5 4 6 2 11 -5 11 -13 0 -3 14 12 16 5 1 11 2 13 3 3 0 1 15 -4 31
-5 18 -5 30 1 30 5 0 9 -12 9 -26 0 -16 4 -23 12 -18 7 5 9 1 6 -13 -3 -13 0
-20 9 -20 8 0 12 6 8 14 -3 8 -5 21 -5 29 0 9 -4 12 -10 9 -5 -3 -7 0 -4 9 3
8 13 17 21 20 13 5 14 4 3 -9 -15 -18 1 -20 19 -2 10 10 11 9 6 -5 -4 -11 -2
-18 4 -18 14 0 14 33 0 47 -9 9 -7 10 9 6 13 -3 19 -10 15 -17 -4 -7 -1 -7 7
1 11 10 16 9 27 -5 12 -15 13 -14 8 9 -5 18 -1 30 12 40 16 13 17 12 5 -2 -10
-14 -9 -17 8 -22 15 -4 20 0 21 16 1 12 2 27 4 32 1 6 3 21 3 34 2 20 4 21 17
11 12 -10 16 -9 21 3 3 9 4 20 1 24 -3 5 1 17 9 28 8 10 14 15 14 9 0 -5 5 -2
10 6 7 11 10 12 10 2 0 -12 23 -42 33 -42 13 0 46 39 37 45 -19 12 -10 25 14
21 19 -3 23 -1 19 11 -5 12 -7 12 -14 1 -6 -9 -9 -7 -9 8 0 12 6 21 15 21 8 0
15 -4 15 -9 0 -4 9 -8 20 -8 22 0 29 36 8 43 -7 2 -5 3 4 2 10 -2 21 1 24 6 3
5 0 9 -6 9 -7 0 -10 6 -7 14 3 7 2 17 -3 22 -5 5 -1 15 7 23 13 12 14 11 8 -9
-5 -15 -4 -20 3 -16 12 7 9 -44 -4 -66 -4 -7 2 -5 14 5 11 11 18 25 15 33 -3
8 0 14 7 14 7 0 9 8 5 19 -4 13 0 20 14 24 11 3 22 0 24 -7 3 -6 8 -2 12 9 18
51 26 66 34 60 5 -3 12 -1 16 4 3 6 -3 8 -15 6 -27 -5 -26 12 1 20 13 4 25 2
29 -5 5 -7 13 -9 21 -5 10 7 8 10 -6 15 -22 8 -29 40 -9 40 7 0 11 -6 8 -14
-4 -11 0 -13 16 -9 14 4 20 12 17 23 -3 13 1 16 20 14 15 -1 23 2 20 9 -2 7
-9 12 -14 12 -6 0 -15 4 -20 9 -4 5 -3 6 4 2 6 -3 14 -2 18 4 4 6 11 8 16 5 8
-5 13 14 11 36 -1 8 48 23 63 20 6 -1 4 3 -2 10 -29 29 -9 61 34 55 10 -2 12
-1 6 1 -7 3 -13 9 -13 14 0 6 -9 7 -21 4 -19 -6 -20 -5 -9 15 12 22 35 23 35
0 0 -7 11 -17 24 -22 21 -7 22 -6 11 7 -7 8 -9 15 -5 15 4 0 2 6 -4 14 -9 11
-4 17 25 31 39 18 54 14 34 -10 -8 -10 -9 -15 -1 -15 12 0 12 1 16 38 1 14 -3
22 -13 22 -11 0 -13 3 -6 10 16 16 44 1 44 -23 0 -11 2 -18 5 -15 9 8 15 49 7
44 -4 -2 -12 2 -19 9 -10 10 -9 16 4 27 10 8 14 8 10 1 -4 -6 -3 -14 3 -18 5
-3 10 1 10 9 0 8 12 28 27 43 15 16 24 21 20 11 -3 -9 0 -18 6 -21 8 -3 12 6
12 25 0 25 -3 29 -22 25 -13 -2 -23 0 -23 4 0 5 6 9 13 9 7 0 22 7 33 16 16
13 16 15 2 10 -25 -8 -22 1 5 15 12 6 19 8 15 4 -9 -10 9 -45 24 -45 7 0 7 4
1 13 -8 11 -10 29 -3 42 1 3 3 8 4 13 6 31 29 47 69 51 5 1 6 10 2 20 -5 15 0
21 25 26 25 6 29 11 26 31 -3 16 0 24 10 24 8 0 14 -5 14 -11 0 -5 5 -7 10 -4
15 9 12 25 -4 25 -22 0 -24 12 -9 40 14 24 14 24 10 2 -4 -19 -3 -21 8 -12 8
7 17 20 20 31 4 11 12 17 18 13 7 -3 5 1 -4 8 -12 10 -13 16 -5 23 17 15 78
17 88 3 5 -9 8 -10 8 -1 0 6 -5 15 -10 18 -6 4 -8 11 -5 16 4 5 -1 9 -10 9
-10 0 -13 -5 -9 -12 5 -7 3 -8 -6 -3 -7 4 -16 2 -20 -5 -5 -9 -9 -9 -14 -1 -4
6 4 16 18 22 14 7 23 16 20 20 -3 5 0 9 5 9 6 0 11 -4 11 -8 0 -5 6 -9 14 -9
10 0 13 9 11 29 -2 15 0 28 4 28 5 0 11 6 14 14 4 9 -1 13 -11 12 -9 -2 -2 2
16 7 17 6 32 14 32 19 0 5 -4 6 -10 3 -6 -3 -7 1 -4 10 6 14 9 14 33 -1 14 -9
23 -13 19 -9 -4 5 -3 14 3 22 7 8 8 13 1 13 -5 0 -9 11 -9 25 0 14 3 25 8 25
5 0 9 6 9 14 0 15 45 30 60 21 5 -3 14 3 19 14 6 11 7 21 2 23 -13 5 -25 68
-12 68 6 0 8 -7 5 -15 -4 -8 -1 -15 4 -15 6 0 9 14 7 33 -3 23 -2 28 5 17 5
-8 10 -23 10 -33 0 -12 4 -16 13 -10 6 4 15 8 19 8 3 0 10 4 15 9 5 5 2 6 -6
1 -11 -6 -13 -3 -8 14 3 12 -1 27 -9 35 -17 18 -18 29 -1 23 15 -5 67 47 67
68 0 10 10 15 26 15 21 0 24 3 15 14 -9 11 -7 15 11 20 14 5 18 9 11 13 -17 6
-17 27 0 20 15 -6 16 20 2 43 -6 10 -2 10 12 -2 21 -19 38 -24 29 -9 -4 5 -2
20 3 33 6 12 10 17 10 11 1 -7 6 -13 12 -13 7 0 8 11 4 30 -6 29 9 44 17 18 3
-9 6 -9 12 0 4 7 2 12 -5 12 -8 0 -7 5 2 17 12 14 12 16 0 8 -10 -5 -12 -4 -7
4 4 6 16 9 25 6 15 -4 17 0 13 26 -4 29 -3 31 19 24 l24 -7 -22 21 c-29 27
-29 29 2 23 14 -2 25 -11 25 -21 0 -14 2 -14 10 -1 14 22 12 30 -7 30 -13 0
-14 3 -5 12 7 7 12 26 12 43 1 26 2 28 13 13 8 -10 18 -13 26 -8 11 6 11 9 0
13 -12 4 -11 7 1 16 8 6 16 15 16 21 1 5 3 13 4 18 1 4 3 13 4 19 0 7 4 13 9
13 39 0 47 -1 42 -10 -3 -5 -1 -10 4 -10 6 0 11 7 11 15 0 8 -9 15 -20 15 -11
0 -20 5 -20 10 0 6 5 10 11 10 5 0 7 5 3 12 -4 7 -3 8 4 4 16 -10 53 29 40 42
-12 12 -1 35 13 27 5 -4 9 1 9 9 0 19 11 21 28 4 18 -18 14 3 -5 24 -14 15
-14 21 -3 31 10 9 11 9 6 0 -4 -7 -2 -13 4 -13 12 0 33 48 25 60 -2 4 4 15 15
25 12 10 20 13 20 7 0 -7 -5 -12 -12 -12 -6 0 -8 -3 -5 -6 13 -13 39 20 34 43
-3 15 1 23 9 23 8 0 14 5 14 10 0 14 -23 12 -40 -2 -12 -11 -12 -10 0 5 10 13
21 16 44 11 25 -5 29 -4 19 6 -9 10 -9 16 2 26 8 8 12 24 10 35 -3 15 2 23 15
26 11 3 20 12 20 20 0 8 5 11 12 7 7 -4 8 -3 4 4 -8 13 23 52 40 52 7 0 10 8
7 20 -3 11 -10 17 -16 13 -6 -3 -7 -1 -3 6 4 6 12 9 17 6 5 -4 10 -1 10 4 3
21 4 26 13 39 4 7 3 19 -4 27 -14 17 -16 17 -50 3z m-70 -242 c0 -3 -4 -8 -10
-11 -5 -3 -10 -1 -10 4 0 6 5 11 10 11 6 0 10 -2 10 -4z m-193 -311 c-4 -10
-26 -14 -40 -7 -13 6 1 18 22 18 12 0 20 -5 18 -11z m-439 -603 c-10 -2 -18
-8 -18 -14 0 -6 -2 -9 -5 -6 -12 12 7 37 23 30 16 -6 15 -7 0 -10z m-81 -177
c8 -9 13 -18 11 -21 -3 -2 -13 5 -23 16 -21 23 -11 27 12 5z m-77 -127 c0 -6
-6 -5 -15 2 -8 7 -15 14 -15 16 0 2 7 1 15 -2 8 -4 15 -11 15 -16z m-99 -105
c13 -16 12 -17 -3 -4 -10 7 -18 15 -18 17 0 8 8 3 21 -13z m-381 -473 c0 -5
-2 -10 -4 -10 -3 0 -8 5 -11 10 -3 6 -1 10 4 10 6 0 11 -4 11 -10z m-3170 -20
c0 -5 -5 -10 -11 -10 -5 0 -7 5 -4 10 3 6 8 10 11 10 2 0 4 -4 4 -10z m3102
-22 c-7 -7 -12 -8 -12 -2 0 14 12 26 19 19 2 -3 -1 -11 -7 -17z m-3142 -17 c0
-4 -7 -8 -15 -8 -16 0 -20 9 -9 20 8 8 24 -1 24 -12z m3120 -31 c0 -5 -2 -10
-4 -10 -3 0 -8 5 -11 10 -3 6 -1 10 4 10 6 0 11 -4 11 -10z m-3257 -26 c-11
-8 -13 -13 -5 -14 8 0 6 -6 -5 -18 -19 -19 -28 -19 -28 1 0 18 37 57 47 51 5
-3 1 -12 -9 -20z m79 8 c4 -13 -1 -18 -18 -20 -13 -1 -26 3 -30 9 -4 7 1 9 15
4 15 -5 21 -2 21 9 0 21 7 20 12 -2z m-50 -60 c-7 -2 -10 -8 -6 -13 3 -5 0
-10 -5 -10 -6 -1 -16 -2 -23 -3 -20 -2 -20 -24 1 -36 21 -11 29 -40 11 -40 -5
0 -7 7 -4 15 4 8 1 15 -5 15 -6 0 -11 -5 -11 -11 0 -5 -5 -7 -11 -4 -6 4 -8
10 -5 13 3 3 2 10 -3 16 -13 15 39 75 58 68 10 -4 11 -7 3 -10z m-74 -37 c-16
-35 -29 -31 -15 4 6 17 14 28 19 25 4 -3 2 -16 -4 -29z m97 -5 c-14 -15 -14
-18 0 -30 9 -7 13 -15 10 -18 -3 -3 -14 5 -25 18 -19 22 -19 25 -4 41 9 10 21
16 26 13 5 -3 2 -14 -7 -24z m-135 -15 c0 -8 -2 -15 -4 -15 -2 0 -6 7 -10 15
-3 8 -1 15 4 15 6 0 10 -7 10 -15z m241 -2 c13 -16 12 -17 -3 -4 -17 13 -22
21 -14 21 2 0 10 -8 17 -17z m-36 -21 c-3 -3 -11 0 -18 7 -9 10 -8 11 6 5 10
-3 15 -9 12 -12z m-185 -18 c0 -8 -4 -12 -10 -9 -5 3 -10 1 -10 -4 0 -6 -5
-11 -10 -11 -7 0 -7 6 0 20 13 24 30 26 30 4z m35 -22 c0 -9 -5 -23 -9 -30 -4
-7 -5 -19 -2 -27 6 -17 -2 -19 -22 -6 -7 4 -12 14 -10 22 2 8 -3 13 -10 11 -8
-1 -12 3 -10 10 3 7 12 13 21 13 9 0 22 6 29 13 15 15 15 15 13 -6z m87 -33
c6 -19 15 -28 24 -25 8 3 11 0 7 -10 -8 -20 -24 -17 -30 6 -3 11 -8 20 -12 20
-4 0 -7 9 -7 20 0 28 5 25 18 -11z m-12 -29 c0 -5 -4 -10 -10 -10 -5 0 -10 5
-10 10 0 6 5 10 10 10 6 0 10 -4 10 -10z m137 -6 c-3 -3 -12 -4 -19 -1 -8 3
-5 6 6 6 11 1 17 -2 13 -5z m-133 -81 c-4 -22 -12 -31 -24 -30 -10 1 -16 5
-14 9 3 5 10 6 15 3 5 -4 9 -3 9 2 0 4 3 18 6 31 5 16 2 22 -10 22 -10 0 -14
5 -10 11 13 22 35 -15 28 -48z m61 39 c32 -6 33 -14 1 -10 -16 1 -31 10 -33
18 -3 9 -1 11 4 5 4 -5 17 -12 28 -13z m-31 -60 c3 -5 -1 -9 -9 -9 -8 0 -12 4
-9 9 3 4 7 8 9 8 2 0 6 -4 9 -8z m61 -2 c3 -5 1 -10 -4 -10 -6 0 -11 5 -11 10
0 6 2 10 4 10 3 0 8 -4 11 -10z m2785 -31 c0 -5 -8 -9 -17 -8 -11 0 -13 3 -5
6 6 2 9 10 6 15 -4 7 -2 8 4 4 7 -4 12 -11 12 -17z m-2860 5 c0 -8 -19 -13
-24 -6 -3 5 1 9 9 9 8 0 15 -2 15 -3z m60 2 c0 -3 -4 -8 -10 -11 -5 -3 -10 -1
-10 4 0 6 5 11 10 11 6 0 10 -2 10 -4z m-84 -58 c4 -7 4 -10 -1 -6 -4 4 -13 4
-19 -1 -6 -5 -20 -5 -31 0 -18 9 -18 9 3 5 12 -2 22 0 22 5 0 13 18 11 26 -3z
m-71 -26 c-8 -8 -25 10 -19 20 4 6 9 5 15 -3 4 -7 6 -15 4 -17z m2839 3 c-4
-8 -8 -15 -10 -15 -2 0 -4 7 -4 15 0 8 4 15 10 15 5 0 7 -7 4 -15z m-2755 -8
c8 -10 7 -14 -2 -14 -8 0 -14 6 -14 14 0 7 1 13 2 13 2 0 8 -6 14 -13z m66 3
c-3 -5 -1 -10 4 -10 6 0 11 -4 11 -10 0 -5 -7 -10 -16 -10 -8 0 -12 -4 -9 -10
3 -6 -1 -7 -10 -3 -13 5 -14 7 -3 14 7 5 14 13 14 19 2 17 4 20 10 20 3 0 2
-4 -1 -10z m85 -22 c0 -4 -4 -8 -9 -8 -6 0 -12 4 -15 8 -3 5 1 9 9 9 8 0 15
-4 15 -9z m50 -41 c0 -5 -4 -5 -10 -2 -5 3 -10 14 -10 23 0 15 2 15 10 2 5 -8
10 -19 10 -23z m-140 -9 c0 -4 -4 -8 -9 -8 -6 0 -12 4 -15 8 -3 5 1 9 9 9 8 0
15 -4 15 -9z m-24 -25 c-6 -6 -36 9 -36 18 0 5 9 4 20 -3 10 -7 18 -14 16 -15z
m2619 -12 c-7 -23 -25 -19 -25 5 0 8 5 12 10 9 6 -3 10 -1 10 6 0 7 3 10 6 6
3 -3 3 -15 -1 -26z m-2585 -6 c0 -8 -4 -15 -10 -15 -5 0 -7 7 -4 15 4 8 8 15
10 15 2 0 4 -7 4 -15z m17 -17 c-3 -8 -6 -5 -6 6 -1 11 2 17 5 13 3 -3 4 -12
1 -19z m36 -33 c-7 -19 -19 -19 -27 1 -3 8 -2 12 4 9 6 -3 10 -1 10 5 0 6 4 9
10 5 5 -3 7 -12 3 -20z m2387 -56 c0 -6 -4 -7 -10 -4 -5 3 -10 11 -10 16 0 6
5 7 10 4 6 -3 10 -11 10 -16z m-2284 -36 c-7 -7 -26 7 -26 19 0 6 6 6 15 -2 9
-7 13 -15 11 -17z m-139 -10 c-3 -20 3 -35 20 -51 13 -12 21 -27 18 -32 -9
-15 -25 -2 -18 15 3 9 -1 15 -11 15 -16 0 -18 5 -18 35 0 30 2 45 7 45 3 0 4
-12 2 -27z m2368 -11 c-3 -3 -11 0 -18 7 -9 10 -8 11 6 5 10 -3 15 -9 12 -12z
m-2305 -36 c0 -6 -7 -1 -15 10 -8 10 -15 23 -15 28 0 6 7 1 15 -10 8 -10 15
-23 15 -28z m-50 -47 c0 -5 -4 -9 -10 -9 -5 0 -10 7 -10 16 0 8 5 12 10 9 6
-3 10 -10 10 -16z m85 -19 c3 -5 1 -10 -4 -10 -6 0 -11 5 -11 10 0 6 2 10 4
10 3 0 8 -4 11 -10z m-70 -20 c-2 -4 -16 -5 -31 -2 -16 3 -21 7 -14 12 15 9
52 1 45 -10z m2130 -10 c3 -6 -1 -7 -9 -4 -18 7 -21 14 -7 14 6 0 13 -4 16
-10z m-2085 -25 c0 -8 -2 -15 -4 -15 -2 0 -6 7 -10 15 -3 8 -1 15 4 15 6 0 10
-7 10 -15z m2000 -35 c-36 -28 -48 -24 -14 5 15 13 31 22 33 19 3 -3 -5 -14
-19 -24z m-1920 10 c0 -5 -2 -10 -4 -10 -3 0 -8 5 -11 10 -3 6 -1 10 4 10 6 0
11 -4 11 -10z m-66 -33 c7 -7 10 -20 7 -30 -6 -15 -9 -16 -25 -4 -12 9 -17 20
-13 31 8 19 14 20 31 3z m83 7 c-3 -3 -12 -4 -19 -1 -8 3 -5 6 6 6 11 1 17 -2
13 -5z m1848 -4 c3 -5 1 -10 -4 -10 -6 0 -11 5 -11 10 0 6 2 10 4 10 3 0 8 -4
11 -10z m-91 -25 c-7 -16 -24 -21 -24 -6 0 8 7 13 27 20 1 1 0 -6 -3 -14z
m-1777 -21 c-3 -3 -12 -4 -19 -1 -8 3 -5 6 6 6 11 1 17 -2 13 -5z m40 -40 c-3
-3 -12 -4 -19 -1 -8 3 -5 6 6 6 11 1 17 -2 13 -5z m1690 -16 c-3 -8 -6 -5 -6
6 -1 11 2 17 5 13 3 -3 4 -12 1 -19z m-1807 2 c0 -5 -5 -10 -11 -10 -5 0 -7 5
-4 10 3 6 8 10 11 10 2 0 4 -4 4 -10z m1850 0 c0 -5 -4 -10 -10 -10 -5 0 -10
5 -10 10 0 6 5 10 10 10 6 0 10 -4 10 -10z m-1682 -17 c-6 -7 -14 -10 -19 -7
-15 9 -10 20 10 20 15 0 17 -3 9 -13z m1548 -11 c-10 -2 -22 0 -28 6 -6 6 0 7
19 4 21 -5 23 -7 9 -10z m-1618 -28 c6 3 8 -2 5 -13 -5 -19 -7 -18 -29 6 -29
31 -32 43 -5 19 11 -10 24 -15 29 -12z m1542 12 c0 -3 -4 -8 -10 -11 -5 -3
-10 -1 -10 4 0 6 5 11 10 11 6 0 10 -2 10 -4z m-126 -54 c3 -5 -1 -9 -9 -9 -8
0 -12 4 -9 9 3 4 7 8 9 8 2 0 6 -4 9 -8z m-1320 -89 c4 -9 1 -11 -5 -7 -6 4
-15 1 -19 -6 -5 -9 -9 -9 -14 -1 -4 6 -2 11 4 11 6 0 9 4 6 8 -3 5 1 9 9 9 8
0 17 -7 19 -14z m130 -19 c3 -8 2 -12 -4 -9 -6 3 -10 10 -10 16 0 14 7 11 14
-7z m161 -4 c3 -5 1 -10 -4 -10 -6 0 -11 5 -11 10 0 6 2 10 4 10 3 0 8 -4 11
-10z m427 -22 c-7 -7 -12 -8 -12 -2 0 6 3 14 7 17 3 4 9 5 12 2 2 -3 -1 -11
-7 -17z m-596 -14 c-6 -15 -4 -15 18 0 32 20 47 21 39 0 -5 -13 -7 -13 -14 -2
-5 8 -9 9 -9 2 0 -12 -49 -29 -57 -20 -9 8 5 36 18 36 6 0 8 -7 5 -16z m219 6
c3 -5 1 -10 -4 -10 -6 0 -11 5 -11 10 0 6 2 10 4 10 3 0 8 -4 11 -10z m442 -7
c-14 -14 -19 -15 -29 -4 -7 8 -8 11 -3 8 6 -3 17 -2 25 4 23 14 26 11 7 -8z
m-384 -5 c-6 -11 -31 -10 -37 1 -3 5 5 8 18 7 13 0 22 -4 19 -8z m42 -5 c-4
-27 4 -33 30 -23 15 6 25 6 25 0 0 -5 -10 -12 -21 -15 -26 -8 -54 16 -46 39 8
21 16 20 12 -1z"/>
<path d="M6275 7440 c4 -6 11 -8 16 -5 14 9 11 15 -7 15 -8 0 -12 -5 -9 -10z"/>
<path d="M6166 7217 c3 -10 9 -15 12 -12 3 3 0 11 -7 18 -10 9 -11 8 -5 -6z"/>
<path d="M5895 6790 c3 -5 8 -10 11 -10 2 0 4 5 4 10 0 6 -5 10 -11 10 -5 0
-7 -4 -4 -10z"/>
<path d="M5567 6282 c-19 -20 -23 -37 -7 -27 10 6 33 45 27 45 -2 0 -11 -8
-20 -18z"/>
<path d="M5535 6231 c-3 -5 -2 -12 3 -15 5 -3 9 1 9 9 0 17 -3 19 -12 6z"/>
<path d="M5385 6020 c3 -5 8 -10 11 -10 2 0 4 5 4 10 0 6 -5 10 -11 10 -5 0
-7 -4 -4 -10z"/>
<path d="M5023 5546 c4 -10 2 -25 -5 -34 -12 -14 -11 -14 10 -1 26 17 27 22 5
40 -15 12 -16 12 -10 -5z"/>
<path d="M4890 5360 c-8 -5 -11 -12 -7 -16 4 -4 13 -2 19 4 15 15 7 24 -12 12z"/>
<path d="M4735 5170 c4 -6 11 -8 16 -5 14 9 11 15 -7 15 -8 0 -12 -5 -9 -10z"/>
<path d="M4695 5160 c-3 -5 1 -10 9 -10 9 0 16 5 16 10 0 6 -4 10 -9 10 -6 0
-13 -4 -16 -10z"/>
<path d="M1370 5139 c0 -11 27 -12 34 -1 2 4 -4 9 -15 9 -10 1 -19 -2 -19 -8z"/>
<path d="M1333 5102 c10 -10 14 -21 11 -24 -3 -3 -1 -9 5 -13 6 -3 11 1 11 9
0 9 5 16 10 16 6 0 10 8 10 18 -1 15 -2 15 -15 -2 -13 -17 -15 -17 -21 -3 -3
10 -11 17 -17 17 -5 0 -3 -8 6 -18z"/>
<path d="M1311 5074 c0 -11 3 -14 6 -6 3 7 2 16 -1 19 -3 4 -6 -2 -5 -13z"/>
<path d="M1325 5040 c3 -5 8 -10 11 -10 2 0 4 5 4 10 0 6 -5 10 -11 10 -5 0
-7 -4 -4 -10z"/>
<path d="M1301 4984 c0 -11 3 -14 6 -6 3 7 2 16 -1 19 -3 4 -6 -2 -5 -13z"/>
<path d="M1430 4972 c0 -11 23 -22 46 -22 8 0 14 5 14 11 0 6 -7 8 -16 5 -9
-4 -23 -1 -30 5 -9 7 -14 8 -14 1z"/>
<path d="M1350 4960 c0 -5 -8 -10 -17 -11 -11 0 -13 -3 -5 -6 6 -2 12 -11 12
-19 0 -16 9 -18 28 -5 11 7 11 9 -2 14 -9 4 -13 13 -10 22 3 8 3 15 0 15 -3 0
-6 -4 -6 -10z"/>
<path d="M1497 4946 c-3 -8 -16 -12 -34 -10 -15 2 -20 1 -10 -2 9 -3 17 -12
17 -20 0 -8 3 -14 8 -14 13 1 42 49 33 54 -5 3 -11 0 -14 -8z"/>
<path d="M25375 4949 c-95 -13 -261 -77 -367 -140 -222 -133 -479 -381 -734
-709 -350 -449 -721 -1075 -964 -1625 -75 -170 -153 -383 -152 -417 1 -10 -4
-18 -10 -18 -6 0 -8 -3 -5 -6 4 -4 13 -1 22 6 12 10 15 10 15 -4 0 -9 -5 -16
-12 -16 -6 0 -8 -3 -5 -6 4 -4 18 1 33 10 31 21 48 11 19 -11 -20 -15 -20 -15
2 -10 14 3 27 -1 35 -11 11 -13 10 -15 -4 -9 -10 3 -18 2 -18 -2 0 -18 25 -17
44 1 15 13 23 15 33 6 11 -9 12 -13 1 -19 -10 -7 -10 -9 2 -9 12 0 12 -2 2 -9
-11 -6 -10 -10 4 -15 10 -4 15 -4 11 0 -9 10 12 34 30 34 8 0 12 -4 9 -9 -3
-5 2 -15 11 -22 14 -12 15 -12 9 -1 -9 15 12 62 27 62 6 0 2 -10 -9 -21 -14
-16 -16 -23 -6 -26 6 -3 10 -9 7 -13 -3 -5 -1 -11 5 -15 5 -3 10 1 10 9 0 8 4
17 9 20 10 6 8 -34 -2 -51 -3 -5 0 -10 8 -10 8 0 12 4 9 8 -3 5 1 19 8 31 7
13 11 27 10 31 -1 5 2 6 7 3 5 -4 8 -25 6 -49 -3 -25 -1 -37 4 -28 6 10 13 10
28 2 11 -5 23 -8 26 -4 3 3 14 2 24 -1 15 -6 15 -8 3 -16 -9 -6 -10 -10 -3
-10 7 0 17 8 23 17 8 13 13 14 16 6 6 -14 26 -18 21 -5 -1 4 3 8 8 10 6 1 10
-2 10 -8 0 -5 5 -9 10 -8 6 2 9 7 7 13 -1 5 4 2 11 -7 8 -10 17 -15 21 -11 4
4 4 -1 0 -11 -6 -15 -4 -17 6 -11 7 4 37 9 65 10 52 1 53 1 49 -24 -1 -14 -1
-20 2 -13 7 16 31 16 37 0 3 -9 10 -7 21 7 8 11 16 16 16 11 0 -5 6 -3 14 3
17 15 44 5 51 -20 4 -10 11 -19 16 -19 5 0 9 -8 9 -17 0 -15 -2 -16 -10 -3 -6
9 -10 10 -10 3 0 -16 17 -26 25 -13 4 6 11 8 16 5 5 -4 9 -1 9 5 0 6 5 8 13 3
24 -15 43 -13 23 3 -11 8 -28 12 -37 9 -10 -3 -19 1 -23 10 -3 8 -1 15 4 15 6
0 10 -5 10 -12 0 -9 3 -9 11 -1 17 17 86 -28 73 -48 -2 -4 6 -5 18 -2 19 4 20
3 8 -7 -13 -10 -13 -11 0 -7 8 2 14 11 12 21 -4 20 8 21 33 3 19 -14 12 -43
-7 -31 -7 5 -8 2 -4 -5 6 -9 13 -8 29 6 11 10 17 13 14 6 -4 -6 -3 -14 3 -18
5 -3 10 -1 10 4 0 6 11 10 25 9 14 -1 25 -8 25 -14 0 -7 10 -9 26 -6 20 4 23
7 12 14 -10 7 -8 8 5 4 10 -3 22 -6 25 -6 4 0 1 -4 -7 -9 -7 -5 -10 -14 -6
-20 5 -9 10 -9 20 -1 10 8 14 8 17 -1 3 -9 11 -10 24 -4 32 14 54 13 54 -3 0
-11 -3 -12 -14 -3 -11 9 -15 7 -19 -9 -3 -13 -1 -18 6 -13 18 11 37 12 37 2 0
-4 7 -6 15 -3 12 5 13 10 4 20 -9 10 -6 12 11 9 13 -2 25 -6 27 -9 9 -9 -8
-26 -25 -26 -15 0 -15 -2 -2 -10 11 -7 20 -4 33 13 10 12 16 17 13 10 -4 -6
-2 -15 4 -18 6 -4 10 -3 9 2 -1 4 -1 19 0 33 1 17 4 21 9 12 5 -7 16 -10 28
-6 18 6 18 6 -1 -9 -13 -11 -16 -19 -9 -24 6 -5 14 -15 17 -23 4 -9 6 -5 4 9
-1 14 4 26 13 28 12 4 12 3 2 -5 -11 -7 -10 -12 3 -26 9 -9 24 -16 33 -15 12
0 11 3 -5 9 -13 5 -23 11 -23 14 0 2 10 2 23 -2 20 -5 21 -4 8 11 -12 15 -11
17 3 17 10 0 15 -3 13 -7 -6 -11 7 -45 15 -41 4 2 17 -7 31 -20 l24 -23 -1 22
c-1 19 5 23 34 25 19 1 25 0 13 -3 -27 -5 -30 -18 -7 -27 17 -7 46 22 38 36
-3 5 -3 8 1 8 3 0 10 -12 15 -26 8 -20 15 -24 33 -20 12 3 16 3 10 0 -26 -11
-12 -25 22 -22 24 1 34 6 31 15 -3 7 -1 13 5 13 6 0 7 4 4 10 -3 6 1 7 10 4
12 -5 13 -10 4 -20 -6 -7 -9 -19 -6 -26 4 -8 6 -7 6 5 1 18 41 25 41 7 0 -5
-4 -10 -10 -10 -5 0 -10 -4 -10 -10 0 -5 9 -10 20 -10 11 0 20 -4 20 -10 0 -5
4 -10 10 -10 11 0 9 22 -2 30 -3 3 4 10 18 17 13 6 22 7 19 3 -3 -5 -2 -10 2
-13 5 -2 2 -2 -4 -1 -17 4 -16 -8 2 -32 11 -13 13 -14 9 -3 -4 13 0 15 20 12
15 -3 23 -10 20 -18 -8 -19 38 -27 56 -9 8 8 11 14 5 13 -31 -5 -37 2 -14 22
17 15 25 17 28 7 17 -54 22 -62 31 -48 6 10 4 17 -6 23 -8 5 -12 13 -8 18 3 6
13 1 21 -11 9 -12 23 -20 32 -17 9 2 23 -3 31 -11 12 -13 11 -15 -6 -10 -12 3
-21 0 -21 -7 0 -7 10 -10 24 -7 15 3 25 -1 29 -13 5 -13 9 -14 15 -4 6 10 11
10 23 0 14 -12 16 -10 16 8 0 12 -4 19 -10 16 -6 -3 -10 4 -10 17 0 17 3 19 9
9 5 -7 14 -11 20 -7 7 5 9 1 5 -8 -4 -9 -1 -16 6 -16 9 0 9 -4 -1 -17 -13 -15
-12 -15 7 -3 12 7 20 20 19 29 -1 9 0 10 2 4 3 -7 14 -13 25 -13 15 0 18 -3
11 -12 -13 -16 -13 -49 -1 -42 5 4 7 12 4 20 -4 12 -2 12 15 3 19 -10 20 -9 9
11 -7 13 -8 20 -2 16 6 -3 12 -3 15 1 2 5 2 2 1 -4 -2 -7 2 -13 9 -14 7 0 22
-2 35 -5 13 -2 21 0 17 5 -3 5 -1 12 5 16 5 3 10 -1 10 -9 0 -9 5 -16 10 -16
14 0 12 -18 -2 -23 -7 -2 -4 -3 6 -1 11 2 26 -2 33 -8 8 -6 13 -7 13 0 0 19
48 10 59 -12 7 -13 10 -14 7 -3 -4 10 0 17 9 17 8 0 15 7 15 15 0 8 4 15 8 15
15 0 30 -22 25 -36 -4 -10 3 -14 21 -14 14 0 26 -4 26 -10 0 -5 7 -7 15 -4 8
4 15 1 15 -5 0 -9 5 -9 21 -1 17 10 21 8 26 -9 3 -11 9 -18 14 -15 5 3 7 10 4
15 -4 5 -1 9 5 9 6 0 15 -10 20 -22 8 -22 9 -21 10 7 0 21 3 26 9 16 5 -7 14
-11 20 -7 7 5 8 1 4 -10 -4 -12 -2 -15 8 -12 8 3 13 10 12 16 -1 5 12 9 30 8
21 -1 31 3 30 11 -2 7 2 13 7 13 6 0 10 -12 10 -27 0 -20 3 -24 9 -14 6 9 10
10 16 2 5 -9 11 -9 23 1 10 7 14 8 10 4 -4 -5 -3 -15 3 -23 6 -7 9 -21 7 -31
-3 -11 0 -19 7 -19 7 0 11 6 8 14 -3 7 0 20 7 28 14 17 40 20 40 4 0 -5 -4 -8
-8 -5 -4 2 -14 1 -22 -5 -23 -14 16 -12 43 3 27 14 78 17 94 5 15 -11 6 -37
-13 -37 -7 0 -11 6 -8 14 3 8 1 17 -5 21 -7 4 -9 -1 -5 -12 4 -12 3 -14 -3 -6
-5 8 -14 9 -23 3 -11 -7 -8 -11 14 -20 29 -10 70 -9 82 2 3 4 18 2 32 -3 22
-8 23 -8 12 6 -7 8 -8 15 -2 15 12 0 34 -25 27 -31 -2 -3 6 -11 18 -18 20 -13
21 -13 8 2 -12 15 -11 17 8 17 11 0 21 -5 21 -11 0 -5 5 -7 10 -4 6 3 10 -3
10 -14 0 -32 15 -25 29 14 7 19 17 35 22 35 6 0 5 -8 -1 -20 -6 -11 -8 -26 -4
-32 4 -7 3 -8 -4 -4 -7 4 -12 2 -12 -3 0 -17 18 -13 28 5 8 15 10 15 15 0 4
-9 13 -16 22 -16 8 0 15 -7 15 -16 0 -13 3 -14 15 -4 11 9 12 17 5 30 -13 25
-13 30 4 24 8 -3 16 0 19 8 2 7 2 2 0 -10 -2 -15 0 -21 7 -17 5 3 13 -1 16
-10 5 -13 9 -14 15 -4 5 8 1 22 -9 34 -11 13 -8 12 11 -4 27 -24 36 -38 17
-26 -5 3 -10 1 -10 -4 0 -14 2 -14 36 4 25 13 30 13 46 -2 13 -12 18 -13 18
-3 0 9 6 8 19 -4 11 -10 25 -15 31 -11 9 6 9 10 -1 16 -10 6 -8 9 8 9 16 0 21
-6 20 -22 0 -13 -6 -26 -12 -30 -5 -5 -1 -8 11 -8 13 0 24 10 31 28 11 26 11
26 7 -8 -3 -25 -2 -31 5 -20 8 11 13 12 22 3 16 -16 39 -5 31 15 -5 15 -4 16
13 2 22 -18 19 -18 36 -4 25 19 46 23 46 8 0 -8 -9 -14 -19 -14 -38 0 -16 -15
23 -16 23 -1 44 -7 49 -14 10 -17 22 3 14 24 -5 12 -2 15 10 10 9 -3 13 -10
10 -15 -3 -6 0 -16 6 -25 11 -12 14 -12 26 3 13 17 13 17 14 0 0 -10 5 -15 10
-12 6 4 8 10 5 15 -3 4 2 11 11 14 8 3 12 11 8 17 -4 8 -3 9 5 5 7 -5 9 -12 3
-19 -5 -7 -4 -21 3 -35 9 -17 14 -20 18 -10 4 9 6 7 6 -4 1 -26 14 -22 33 10
14 21 18 23 18 9 0 -10 5 -15 10 -12 6 4 9 1 8 -6 -5 -20 20 -21 26 -1 6 18
11 19 48 9 37 -9 39 -11 23 -24 -15 -10 -20 -10 -27 0 -5 8 -8 3 -8 -13 0 -19
3 -21 12 -12 7 7 20 12 30 12 10 0 17 3 17 8 -4 22 2 42 11 37 6 -4 8 -11 5
-16 -4 -5 3 -9 15 -9 13 0 20 -5 18 -12 -7 -21 17 -36 47 -30 20 3 32 0 43
-14 13 -18 14 -18 7 5 -6 20 -4 23 9 18 9 -4 16 -2 16 3 0 6 5 10 10 10 6 0
10 -9 10 -20 0 -19 1 -19 19 -3 11 9 17 23 15 32 -3 9 1 6 7 -6 7 -13 16 -23
20 -23 5 0 5 -8 2 -17 -6 -16 -5 -16 10 -5 9 8 21 11 27 7 5 -3 13 1 16 9 7
18 24 22 24 5 0 -18 28 -41 35 -29 5 8 11 7 20 0 8 -7 19 -9 25 -5 5 3 10 1
10 -4 0 -6 4 -11 10 -11 5 0 7 8 4 18 -4 11 1 8 15 -8 18 -22 26 -21 23 2 -1
3 6 12 16 20 15 12 16 11 4 -4 -9 -11 -10 -18 -2 -23 5 -3 10 -2 10 3 0 12 61
2 88 -16 13 -8 22 -10 22 -4 0 6 11 9 25 6 16 -3 25 0 25 8 0 9 3 8 10 -2 9
-13 11 -13 21 0 8 11 12 12 16 2 2 -6 9 -10 14 -6 5 3 9 0 9 -5 0 -6 -5 -11
-12 -11 -6 0 -8 -3 -5 -6 4 -4 13 -1 21 5 12 10 17 9 27 -7 12 -19 13 -18 42
9 27 27 47 30 47 9 0 -5 -7 -6 -17 -3 -12 5 -14 3 -8 -7 5 -8 4 -11 -2 -7 -6
4 -17 -1 -24 -10 -12 -15 -11 -16 9 -11 12 4 20 2 17 -2 -3 -5 0 -12 6 -16 7
-4 9 -3 6 3 -4 6 1 17 10 24 10 8 14 9 10 2 -4 -6 -3 -15 3 -18 13 -8 11 -101
17 843 2 430 0 788 -4 796 -6 11 -75 90 -148 170 -116 128 -198 220 -271 302
-426 484 -904 987 -1157 1218 -534 488 -923 670 -1312 615z m-2180 -2849 c3
-5 1 -10 -4 -10 -6 0 -11 5 -11 10 0 6 2 10 4 10 3 0 8 -4 11 -10z m185 -108
c0 -5 -7 -9 -15 -9 -8 0 -15 4 -15 9 0 4 7 8 15 8 8 0 15 -4 15 -8z m145 -74
c6 -4 2 -8 -7 -8 -10 0 -18 7 -18 17 0 9 3 12 8 7 4 -5 12 -12 17 -16z m55 -3
c0 -8 -4 -15 -10 -15 -5 0 -7 7 -4 15 4 8 8 15 10 15 2 0 4 -7 4 -15z m1110
-276 c0 -17 -18 -18 -34 0 -16 17 -15 18 9 14 14 -3 25 -9 25 -14z m385 -69
c3 -5 1 -10 -4 -10 -6 0 -11 5 -11 10 0 6 2 10 4 10 3 0 8 -4 11 -10z m206
-47 c13 -16 12 -17 -3 -4 -10 7 -18 15 -18 17 0 8 8 3 21 -13z m299 -63 c0 -5
-5 -10 -11 -10 -5 0 -7 5 -4 10 3 6 8 10 11 10 2 0 4 -4 4 -10z m170 -19 c0
-4 -6 -8 -14 -8 -8 0 -12 6 -9 14 5 13 23 9 23 -6z m227 -17 c-3 -3 -12 -4
-19 -1 -8 3 -5 6 6 6 11 1 17 -2 13 -5z m560 -90 c-3 -3 -12 -4 -19 -1 -8 3
-5 6 6 6 11 1 17 -2 13 -5z m-5 -42 c3 -11 0 -19 -7 -19 -7 0 -10 8 -7 19 2
10 6 18 7 18 1 0 5 -8 7 -18z m398 -26 c0 -3 -4 -8 -10 -11 -5 -3 -10 -1 -10
4 0 6 5 11 10 11 6 0 10 -2 10 -4z m115 -35 c3 -5 1 -12 -5 -16 -5 -3 -10 1
-10 9 0 18 6 21 15 7z m162 -43 c-3 -8 -6 -5 -6 6 -1 11 2 17 5 13 3 -3 4 -12
1 -19z m340 -43 c0 -8 -4 -15 -9 -15 -10 0 -11 14 -1 23 9 10 10 9 10 -8z
m-57 -15 c-20 -13 -40 -13 -40 0 0 5 6 7 14 4 8 -3 17 0 21 6 4 6 10 9 13 5 4
-3 0 -10 -8 -15z m330 -18 c0 -4 -9 -13 -20 -20 -16 -10 -20 -10 -20 2 0 8 6
17 13 19 19 8 27 8 27 -1z m-63 -8 c-3 -3 -12 -4 -19 -1 -8 3 -5 6 6 6 11 1
17 -2 13 -5z m290 -20 c-3 -3 -12 -4 -19 -1 -8 3 -5 6 6 6 11 1 17 -2 13 -5z"/>
<path d="M1500 4898 c0 -17 2 -18 15 -8 8 7 15 14 15 15 0 2 -7 5 -15 9 -10 4
-15 -1 -15 -16z"/>
<path d="M1360 4899 c0 -5 5 -7 10 -4 6 3 10 8 10 11 0 2 -4 4 -10 4 -5 0 -10
-5 -10 -11z"/>
<path d="M1375 4870 c-16 -7 -17 -9 -3 -9 9 -1 20 4 23 9 7 11 7 11 -20 0z"/>
<path d="M1463 4792 c-7 -4 -10 -17 -6 -30 3 -12 9 -19 14 -17 4 3 6 12 2 20
-3 8 0 15 6 15 6 0 11 5 11 10 0 12 -10 13 -27 2z"/>
<path d="M1510 4780 c-9 -6 -10 -10 -3 -10 6 0 15 5 18 10 8 12 4 12 -15 0z"/>
<path d="M1390 4761 c11 -22 30 -29 30 -11 0 5 -9 14 -21 20 -19 11 -20 10 -9
-9z"/>
<path d="M1510 4753 c-8 -3 -23 -12 -32 -21 -14 -12 -15 -18 -6 -30 10 -11 8
-17 -7 -28 -17 -12 -17 -14 -2 -14 9 0 18 6 19 13 0 6 2 17 3 22 2 6 3 19 4
29 1 18 2 18 19 3 10 -10 22 -14 25 -10 4 3 7 1 7 -5 0 -7 -7 -12 -16 -12 -8
0 -13 -4 -10 -9 4 -5 0 -11 -6 -14 -18 -6 -6 -16 31 -27 24 -7 31 -6 31 6 0 8
-9 14 -21 14 -11 0 -17 5 -14 10 4 6 11 8 16 5 5 -3 6 1 2 10 -3 9 -6 26 -7
38 -1 22 -12 28 -36 20z"/>
<path d="M1417 4665 c-4 -8 -2 -17 3 -20 6 -4 10 3 10 14 0 25 -6 27 -13 6z"/>
<path d="M4193 4673 c-7 -2 -13 -11 -13 -19 0 -12 4 -12 20 -2 31 20 26 35 -7
21z"/>
<path d="M4142 4618 c2 -5 8 -9 13 -9 5 0 11 4 13 9 1 5 -4 9 -13 9 -9 0 -14
-4 -13 -9z"/>
<path d="M1513 4588 c0 -8 14 -13 33 -13 26 -1 30 2 22 12 -13 17 -55 17 -55
1z"/>
<path d="M1480 4580 c0 -5 5 -10 11 -10 5 0 7 5 4 10 -3 6 -8 10 -11 10 -2 0
-4 -4 -4 -10z"/>
<path d="M1522 4554 c9 -3 19 -13 22 -22 3 -12 4 -12 3 3 -1 12 -10 21 -22 22
-15 1 -15 0 -3 -3z"/>
<path d="M1490 4535 c7 -9 15 -13 17 -11 7 7 -7 26 -19 26 -6 0 -6 -6 2 -15z"/>
<path d="M1515 4500 c-3 -5 4 -14 16 -20 28 -15 33 -8 9 13 -11 9 -22 12 -25
7z"/>
<path d="M1436 4457 c3 -10 9 -15 12 -12 3 3 0 11 -7 18 -10 9 -11 8 -5 -6z"/>
<path d="M3991 4454 c0 -11 3 -14 6 -6 3 7 2 16 -1 19 -3 4 -6 -2 -5 -13z"/>
<path d="M1580 4455 c0 -9 34 -45 42 -45 18 0 6 28 -17 38 -14 6 -25 9 -25 7z"/>
<path d="M3900 4389 c0 -5 5 -7 10 -4 6 3 10 8 10 11 0 2 -4 4 -10 4 -5 0 -10
-5 -10 -11z"/>
<path d="M1600 4379 c0 -5 5 -7 10 -4 6 3 10 8 10 11 0 2 -4 4 -10 4 -5 0 -10
-5 -10 -11z"/>
<path d="M1686 4355 c20 -49 24 -54 24 -28 0 12 -9 31 -20 44 l-20 24 16 -40z"/>
<path d="M3830 4368 c0 -4 7 -8 15 -8 8 0 15 4 15 8 0 5 -7 9 -15 9 -8 0 -15
-4 -15 -9z"/>
<path d="M1648 4348 c-10 -10 -14 -18 -9 -18 10 0 36 29 30 34 -2 1 -12 -6
-21 -16z"/>
<path d="M1590 4339 c0 -5 5 -7 10 -4 6 3 10 8 10 11 0 2 -4 4 -10 4 -5 0 -10
-5 -10 -11z"/>
<path d="M1652 4321 c-10 -6 -8 -10 8 -14 12 -3 19 -10 15 -16 -3 -7 0 -8 9
-5 12 5 13 11 5 25 -11 21 -18 23 -37 10z"/>
<path d="M3705 4280 c-8 -13 5 -13 25 0 13 8 13 10 -2 10 -9 0 -20 -4 -23 -10z"/>
<path d="M1681 4204 c0 -11 3 -14 6 -6 3 7 2 16 -1 19 -3 4 -6 -2 -5 -13z"/>
<path d="M1720 4195 c-7 -8 -9 -15 -6 -15 4 0 2 -10 -4 -22 -10 -21 -10 -21 3
-5 8 9 19 17 26 17 13 0 15 26 2 34 -5 3 -14 -1 -21 -9z"/>
<path d="M1643 4179 c1 -18 6 -25 14 -22 7 3 13 9 13 15 0 5 -4 7 -9 3 -5 -3
-12 3 -14 12 -3 10 -4 6 -4 -8z"/>
<path d="M3535 4191 c-3 -5 -1 -13 5 -16 8 -5 7 -11 -1 -21 -10 -12 -9 -13 5
-8 18 7 21 20 6 29 -6 4 -8 11 -5 16 4 5 4 9 1 9 -3 0 -7 -4 -11 -9z"/>
<path d="M1756 4175 c-4 -11 -2 -22 6 -27 9 -6 5 -8 -12 -6 -17 2 -24 -1 -22
-11 2 -9 -3 -11 -15 -7 -14 6 -15 5 -6 -5 10 -10 15 -9 28 1 14 12 20 7 16
-14 -1 -4 3 -14 9 -21 6 -7 8 -19 5 -27 -3 -8 1 -21 10 -28 13 -11 15 -8 16
21 3 59 4 64 13 78 6 10 6 16 -2 19 -7 2 -12 10 -12 18 0 9 -4 13 -9 10 -5 -4
-11 -1 -13 6 -3 7 -7 4 -12 -7z"/>
<path d="M3216 4077 c3 -10 9 -15 12 -12 3 3 0 11 -7 18 -10 9 -11 8 -5 -6z"/>
<path d="M1835 4040 c-3 -6 1 -7 9 -4 18 7 21 14 7 14 -6 0 -13 -4 -16 -10z"/>
<path d="M2954 4007 c1 -15 6 -30 9 -34 11 -10 8 30 -3 47 -7 11 -8 8 -6 -13z"/>
<path d="M1850 4011 c0 -5 5 -13 10 -16 6 -3 10 -2 10 4 0 5 -4 13 -10 16 -5
3 -10 2 -10 -4z"/>
<path d="M3011 3996 c-16 -19 -11 -29 8 -17 7 5 12 14 9 21 -3 9 -8 7 -17 -4z"/>
<path d="M2762 3978 c2 -6 10 -13 16 -14 7 -1 8 0 2 3 -5 2 -8 9 -4 14 3 5 0
9 -6 9 -7 0 -10 -5 -8 -12z"/>
<path d="M2589 3978 c-6 -22 -4 -50 4 -55 6 -3 7 -1 3 5 -4 7 0 12 11 13 11 0
13 3 5 6 -6 2 -10 9 -7 13 3 5 1 11 -5 15 -5 3 -10 5 -11 3z"/>
<path d="M2856 3968 c3 -5 10 -6 15 -3 13 9 11 12 -6 12 -8 0 -12 -4 -9 -9z"/>
<path d="M2150 3956 c0 -2 8 -10 18 -17 15 -13 16 -12 3 4 -13 16 -21 21 -21
13z"/>
<path d="M2520 3921 c0 -6 4 -13 10 -16 6 -3 7 1 4 9 -7 18 -14 21 -14 7z"/>
<path d="M2618 3923 c7 -3 16 -2 19 1 4 3 -2 6 -13 5 -11 0 -14 -3 -6 -6z"/>
<path d="M2295 3910 c3 -5 8 -10 11 -10 2 0 4 5 4 10 0 6 -5 10 -11 10 -5 0
-7 -4 -4 -10z"/>
<path d="M2358 3893 c7 -3 16 -2 19 1 4 3 -2 6 -13 5 -11 0 -14 -3 -6 -6z"/>
<path d="M23598 1853 c7 -3 16 -2 19 1 4 3 -2 6 -13 5 -11 0 -14 -3 -6 -6z"/>
<path d="M23771 1834 c0 -11 3 -14 6 -6 3 7 2 16 -1 19 -3 4 -6 -2 -5 -13z"/>
<path d="M23877 1816 c-15 -13 -24 -26 -20 -30 10 -9 25 -7 19 3 -3 5 3 11 13
14 14 3 18 1 14 -10 -4 -10 -1 -14 7 -11 18 6 23 45 6 51 -7 3 -25 -5 -39 -17z"/>
<path d="M23746 1813 c-6 -14 -5 -15 5 -6 7 7 10 15 7 18 -3 3 -9 -2 -12 -12z"/>
<path d="M24200 1700 c8 -5 20 -10 25 -10 6 0 3 5 -5 10 -8 5 -19 10 -25 10
-5 0 -3 -5 5 -10z"/>
<path d="M24765 1590 c-3 -5 -1 -10 4 -10 6 0 11 5 11 10 0 6 -2 10 -4 10 -3
0 -8 -4 -11 -10z"/>
<path d="M24796 1575 c-3 -9 0 -15 9 -15 9 0 12 6 9 15 -4 8 -7 15 -9 15 -2 0
-5 -7 -9 -15z"/>
<path d="M24868 1553 c7 -3 16 -2 19 1 4 3 -2 6 -13 5 -11 0 -14 -3 -6 -6z"/>
<path d="M25174 1499 c-4 -7 -3 -9 4 -5 5 3 13 0 15 -6 4 -9 6 -10 6 -1 1 17
-16 25 -25 12z"/>
<path d="M25675 1410 c-3 -5 -1 -10 4 -10 6 0 11 5 11 10 0 6 -2 10 -4 10 -3
0 -8 -4 -11 -10z"/>
<path d="M25840 1349 c0 -5 5 -7 10 -4 6 3 10 8 10 11 0 2 -4 4 -10 4 -5 0
-10 -5 -10 -11z"/>
<path d="M26006 1345 c-3 -8 -1 -15 4 -15 6 0 10 7 10 15 0 8 -2 15 -4 15 -2
0 -6 -7 -10 -15z"/>
<path d="M26685 1260 c-3 -5 -1 -10 4 -10 6 0 11 5 11 10 0 6 -2 10 -4 10 -3
0 -8 -4 -11 -10z"/>
<path d="M26740 1234 c0 -8 5 -12 10 -9 6 4 8 11 5 16 -9 14 -15 11 -15 -7z"/>
<path d="M26860 1195 c0 -8 4 -15 10 -15 5 0 7 7 4 15 -4 8 -8 15 -10 15 -2 0
-4 -7 -4 -15z"/>
<path d="M26935 1190 c-3 -5 -1 -10 4 -10 6 0 11 5 11 10 0 6 -2 10 -4 10 -3
0 -8 -4 -11 -10z"/>
<path d="M27070 1175 c0 -5 5 -17 10 -25 5 -8 10 -10 10 -5 0 6 -5 17 -10 25
-5 8 -10 11 -10 5z"/>
<path d="M27230 1150 c0 -5 5 -10 10 -10 6 0 10 5 10 10 0 6 -4 10 -10 10 -5
0 -10 -4 -10 -10z"/>
<path d="M27595 1080 c-3 -5 -1 -10 4 -10 6 0 11 5 11 10 0 6 -2 10 -4 10 -3
0 -8 -4 -11 -10z"/>
<path d="M27665 1080 c-3 -5 -1 -10 4 -10 6 0 11 5 11 10 0 6 -2 10 -4 10 -3
0 -8 -4 -11 -10z"/>
<path d="M27695 1070 c3 -5 8 -10 11 -10 2 0 4 5 4 10 0 6 -5 10 -11 10 -5 0
-7 -4 -4 -10z"/>
<path d="M27936 1045 c-3 -9 -2 -13 3 -10 5 3 12 1 16 -5 3 -5 14 -10 23 -9
14 0 14 2 2 6 -8 3 -20 12 -26 19 -10 13 -13 12 -18 -1z"/>
<path d="M28053 1028 c-2 -16 1 -17 13 -8 17 15 17 17 1 23 -8 3 -14 -3 -14
-15z"/>
<path d="M28130 1010 c-9 -6 -10 -10 -3 -10 6 0 15 5 18 10 8 12 4 12 -15 0z"/>
<path d="M28196 977 c3 -10 9 -15 12 -12 3 3 0 11 -7 18 -10 9 -11 8 -5 -6z"/>
<path d="M16455 840 c-3 -5 -1 -10 4 -10 6 0 11 5 11 10 0 6 -2 10 -4 10 -3 0
-8 -4 -11 -10z"/>
<path d="M16191 644 c0 -11 3 -14 6 -6 3 7 2 16 -1 19 -3 4 -6 -2 -5 -13z"/>
<path d="M15918 633 c7 -3 16 -2 19 1 4 3 -2 6 -13 5 -11 0 -14 -3 -6 -6z"/>
<path d="M15876 525 c4 -8 8 -15 10 -15 2 0 4 7 4 15 0 8 -4 15 -10 15 -5 0
-7 -7 -4 -15z"/>
<path d="M17315 480 c3 -5 8 -10 11 -10 2 0 4 5 4 10 0 6 -5 10 -11 10 -5 0
-7 -4 -4 -10z"/>
<path d="M16580 459 c0 -5 5 -7 10 -4 6 3 10 8 10 11 0 2 -4 4 -10 4 -5 0 -10
-5 -10 -11z"/>
<path d="M17300 440 c0 -5 7 -7 15 -4 8 4 15 8 15 10 0 2 -7 4 -15 4 -8 0 -15
-4 -15 -10z"/>
<path d="M17430 430 c0 -5 5 -10 11 -10 5 0 7 5 4 10 -3 6 -8 10 -11 10 -2 0
-4 -4 -4 -10z"/>
<path d="M17298 363 c7 -3 16 -2 19 1 4 3 -2 6 -13 5 -11 0 -14 -3 -6 -6z"/>
<path d="M16317 313 c-3 -5 -1 -17 4 -28 7 -17 8 -17 8 8 1 27 -4 34 -12 20z"/>
<path d="M16970 306 c0 -2 7 -9 15 -16 13 -11 14 -10 9 4 -5 14 -24 23 -24 12z"/>
<path d="M16280 280 c-8 -15 -8 -18 3 -14 8 3 14 11 14 19 0 20 -4 19 -17 -5z"/>
<path d="M15691 234 c0 -11 3 -14 6 -6 3 7 2 16 -1 19 -3 4 -6 -2 -5 -13z"/>
<path d="M15746 214 c-5 -14 -4 -15 9 -4 17 14 19 20 6 20 -5 0 -12 -7 -15
-16z"/>
<path d="M16091 214 c0 -11 3 -14 6 -6 3 7 2 16 -1 19 -3 4 -6 -2 -5 -13z"/>
<path d="M17171 209 c0 -13 3 -18 6 -11 2 6 9 10 13 7 5 -3 12 0 16 7 4 7 4
10 -1 6 -4 -4 -14 -3 -22 3 -10 9 -13 6 -12 -12z"/>
<path d="M16818 213 c7 -3 16 -2 19 1 4 3 -2 6 -13 5 -11 0 -14 -3 -6 -6z"/>
<path d="M17370 194 c0 -8 5 -12 10 -9 6 4 8 11 5 16 -9 14 -15 11 -15 -7z"/>
<path d="M16535 180 c-3 -5 -1 -10 4 -10 6 0 11 5 11 10 0 6 -2 10 -4 10 -3 0
-8 -4 -11 -10z"/>
<path d="M16090 169 c0 -5 5 -7 10 -4 6 3 10 8 10 11 0 2 -4 4 -10 4 -5 0 -10
-5 -10 -11z"/>
<path d="M17545 170 c-3 -5 -1 -10 4 -10 6 0 11 5 11 10 0 6 -2 10 -4 10 -3 0
-8 -4 -11 -10z"/>
<path d="M17290 166 c0 -2 7 -7 16 -10 8 -3 12 -2 9 4 -6 10 -25 14 -25 6z"/>
<path d="M16580 149 c0 -5 5 -7 10 -4 6 3 10 8 10 11 0 2 -4 4 -10 4 -5 0 -10
-5 -10 -11z"/>
<path d="M17191 146 c-7 -8 -11 -27 -8 -43 4 -27 4 -27 6 4 0 17 7 33 14 36 6
2 9 7 6 11 -3 4 -12 0 -18 -8z"/>
<path d="M16645 140 c-3 -5 -1 -10 4 -10 6 0 11 5 11 10 0 6 -2 10 -4 10 -3 0
-8 -4 -11 -10z"/>
<path d="M17230 135 c0 -8 2 -15 4 -15 2 0 6 7 10 15 3 8 1 15 -4 15 -6 0 -10
-7 -10 -15z"/>
<path d="M15878 116 c4 -15 7 -17 10 -6 3 8 10 18 16 22 6 4 1 6 -10 6 -16 -2
-20 -7 -16 -22z"/>
<path d="M15960 130 c0 -5 5 -10 11 -10 5 0 7 5 4 10 -3 6 -8 10 -11 10 -2 0
-4 -4 -4 -10z"/>
<path d="M16105 130 c-3 -5 -1 -10 4 -10 6 0 11 5 11 10 0 6 -2 10 -4 10 -3 0
-8 -4 -11 -10z"/>
<path d="M16137 123 c-4 -3 -7 -13 -7 -22 1 -13 3 -13 11 2 11 19 8 33 -4 20z"/>
<path d="M16460 120 c0 -5 5 -10 11 -10 5 0 7 5 4 10 -3 6 -8 10 -11 10 -2 0
-4 -4 -4 -10z"/>
<path d="M16290 110 c0 -5 5 -10 10 -10 6 0 10 5 10 10 0 6 -4 10 -10 10 -5 0
-10 -4 -10 -10z"/>
<path d="M16680 110 c0 -5 5 -10 11 -10 5 0 7 5 4 10 -3 6 -8 10 -11 10 -2 0
-4 -4 -4 -10z"/>
<path d="M17278 89 c-10 -5 -18 -14 -18 -19 0 -14 28 -1 34 16 6 16 6 16 -16
3z"/>
<path d="M15975 81 c-3 -5 -2 -12 3 -15 5 -3 9 1 9 9 0 17 -3 19 -12 6z"/>
<path d="M16450 81 c0 -6 4 -13 10 -16 6 -3 7 1 4 9 -7 18 -14 21 -14 7z"/>
<path d="M16967 83 c-10 -9 -9 -23 1 -23 5 0 9 7 9 15 0 17 -1 18 -10 8z"/>
<path d="M16121 37 c-13 -21 -12 -21 5 -5 10 10 16 20 13 22 -3 3 -11 -5 -18
-17z"/>
<path d="M16804 45 c4 -24 16 -30 16 -7 0 12 -4 22 -9 22 -5 0 -8 -7 -7 -15z"/>
<path d="M17145 50 c-4 -6 -11 -7 -17 -4 -7 5 -9 1 -5 -9 5 -14 2 -16 -20 -11
-18 5 -24 4 -19 -5 12 -19 43 -12 60 14 9 14 14 25 12 25 -3 0 -8 -5 -11 -10z"/>
<path d="M17215 50 c3 -5 8 -10 11 -10 2 0 4 5 4 10 0 6 -5 10 -11 10 -5 0 -7
-4 -4 -10z"/>
<path d="M15765 40 c3 -5 11 -10 16 -10 6 0 7 5 4 10 -3 6 -11 10 -16 10 -6 0
-7 -4 -4 -10z"/>
<path d="M16380 40 c-8 -5 -10 -10 -5 -10 6 0 17 5 25 10 8 5 11 10 5 10 -5 0
-17 -5 -25 -10z"/>
<path d="M17510 36 c0 -8 4 -17 9 -20 5 -4 7 3 4 14 -6 23 -13 26 -13 6z"/>
<path d="M16440 25 c0 -8 4 -15 10 -15 5 0 7 7 4 15 -4 8 -8 15 -10 15 -2 0
-4 -7 -4 -15z"/>
<path d="M16579 23 c-13 -16 -12 -17 4 -4 16 13 21 21 13 21 -2 0 -10 -8 -17
-17z"/>
<path d="M17173 25 c0 -8 4 -12 9 -9 5 3 6 10 3 15 -9 13 -12 11 -12 -6z"/>
<path d="M17626 28 c7 -10 24 -10 24 0 0 5 -7 9 -15 9 -8 0 -12 -4 -9 -9z"/>
<path d="M16276 18 c3 -5 10 -6 15 -3 13 9 11 12 -6 12 -8 0 -12 -4 -9 -9z"/>
<path d="M17240 20 c-13 -8 -12 -10 3 -10 9 0 17 5 17 10 0 12 -1 12 -20 0z"/>
</g>
</svg>
